<?xml version="1.0" encoding="UTF-8" standalone="no"?><svg xmlns="http://www.w3.org/2000/svg" xmlns:xlink="http://www.w3.org/1999/xlink" contentScriptType="application/ecmascript" contentStyleType="text/css" height="334px" preserveAspectRatio="none" style="width:647px;height:334px;background:#FFFFFF;" version="1.1" viewBox="0 0 647 334" width="647px" zoomAndPan="magnify"><defs><filter height="300%" id="f1qevf84q08oal" width="300%" x="-1" y="-1"><feGaussianBlur result="blurOut" stdDeviation="2.0"/><feColorMatrix in="blurOut" result="blurOut2" type="matrix" values="0 0 0 0 0 0 0 0 0 0 0 0 0 0 0 0 0 0 .4 0"/><feOffset dx="4.0" dy="4.0" in="blurOut2" result="blurOut3"/><feBlend in="SourceGraphic" in2="blurOut3" mode="normal"/></filter></defs><g><!--MD5=[ed24849fb72ee2bad6e927319d4fcf82]
class VueComponent--><rect codeLine="1" fill="#FEFECE" filter="url(#f1qevf84q08oal)" height="62.0234" id="VueComponent" style="stroke:#A80036;stroke-width:1.5;" width="177" x="7" y="74"/><ellipse cx="22" cy="94.0938" fill="#FFA500" rx="11" ry="11" style="stroke:#A80036;stroke-width:1.0;"/><path d="M22.5938,97.3594 L25.0625,91.4844 L24.6719,91.4844 Q24.0625,91.4844 23.7969,91.25 Q23.5313,91.0156 23.5313,90.625 Q23.5313,90.25 23.7969,90.0156 Q24.0625,89.7813 24.6719,89.7813 L26.9531,89.7813 Q27.5625,89.7813 27.8281,90.0156 Q28.0938,90.25 28.0938,90.625 Q28.0938,91.0938 27.6875,91.3594 Q27.5,91.4844 26.9063,91.4844 L23.4219,99.8438 L21.7813,99.8438 L18.2969,91.4844 Q17.7031,91.4844 17.5156,91.3594 Q17.1094,91.0938 17.1094,90.625 Q17.1094,90.25 17.375,90.0156 Q17.6406,89.7813 18.25,89.7813 L20.5469,89.7813 Q21.1563,89.7813 21.4063,90.0156 Q21.6719,90.25 21.6719,90.625 Q21.6719,91.0156 21.4063,91.25 Q21.1563,91.4844 20.5469,91.4844 L20.1406,91.4844 L22.5938,97.3594 Z " fill="#000000"/><text fill="#000000" font-family="sans-serif" font-size="12" font-style="italic" lengthAdjust="spacing" textLength="101" x="58" y="91.457">«Vue component»</text><text fill="#000000" font-family="sans-serif" font-size="12" lengthAdjust="spacing" textLength="145" x="36" y="106.5508">UpdateItemCommand.vue</text><line style="stroke:#A80036;stroke-width:1.5;" x1="8" x2="183" y1="114.1875" y2="114.1875"/><text fill="#000000" font-family="sans-serif" font-size="11" lengthAdjust="spacing" textLength="57" x="13" y="129.6064">store: Store</text><!--MD5=[b4d3d50c0abf08df45181fececb9f04d]
class Store--><rect codeLine="5" fill="#FEFECE" filter="url(#f1qevf84q08oal)" height="103.3438" id="Store" style="stroke:#A80036;stroke-width:1.5;" width="159" x="16" y="175"/><ellipse cx="76.75" cy="191" fill="#ADD1B2" rx="11" ry="11" style="stroke:#A80036;stroke-width:1.0;"/><path d="M79.5156,186.875 Q79.6719,186.6563 79.8594,186.5469 Q80.0469,186.4375 80.2656,186.4375 Q80.6406,186.4375 80.875,186.7031 Q81.1094,186.9531 81.1094,187.5625 L81.1094,189.0156 Q81.1094,189.625 80.875,189.8906 Q80.6406,190.1563 80.2656,190.1563 Q79.9219,190.1563 79.7188,189.9531 Q79.5156,189.7656 79.4063,189.25 Q79.3594,188.8906 79.1719,188.7031 Q78.8438,188.3281 78.2344,188.1094 Q77.625,187.8906 77,187.8906 Q76.2344,187.8906 75.5938,188.2188 Q74.9688,188.5469 74.4688,189.2969 Q73.9844,190.0469 73.9844,191.0781 L73.9844,192.1719 Q73.9844,193.4063 74.875,194.2344 Q75.7656,195.0469 77.3594,195.0469 Q78.2969,195.0469 78.9531,194.7969 Q79.3438,194.6406 79.7656,194.2031 Q80.0313,193.9375 80.1719,193.8594 Q80.3281,193.7813 80.5313,193.7813 Q80.8594,193.7813 81.1094,194.0469 Q81.375,194.2969 81.375,194.6406 Q81.375,194.9844 81.0313,195.3906 Q80.5313,195.9688 79.7344,196.2969 Q78.6563,196.75 77.3594,196.75 Q75.8438,196.75 74.6406,196.125 Q73.6563,195.625 72.9688,194.5625 Q72.2813,193.4844 72.2813,192.2031 L72.2813,191.0469 Q72.2813,189.7188 72.8906,188.5781 Q73.5156,187.4219 74.6094,186.8125 Q75.7031,186.1875 76.9375,186.1875 Q77.6719,186.1875 78.3125,186.3594 Q78.9688,186.5156 79.5156,186.875 Z " fill="#000000"/><text fill="#000000" font-family="sans-serif" font-size="12" lengthAdjust="spacing" textLength="29" x="97.25" y="195.9102">Store</text><line style="stroke:#A80036;stroke-width:1.5;" x1="17" x2="174" y1="207" y2="207"/><text fill="#000000" font-family="sans-serif" font-size="11" lengthAdjust="spacing" textLength="139" x="22" y="222.4189">currentStudy: StudyAdapter,</text><text fill="#000000" font-family="sans-serif" font-size="11" lengthAdjust="spacing" textLength="147" x="22" y="236.2549">currentPatient: PatientAdapter,</text><text fill="#000000" font-family="sans-serif" font-size="11" lengthAdjust="spacing" textLength="108" x="22" y="250.0908">drivers: StudioDrivers,</text><line style="stroke:#A80036;stroke-width:1.5;" x1="17" x2="174" y1="256.5078" y2="256.5078"/><text fill="#000000" font-family="sans-serif" font-size="11" lengthAdjust="spacing" textLength="85" x="22" y="271.9268">saveItems(items),</text><!--MD5=[1255fc36eafb86bfe53a874538108190]
class StudyAdapter--><rect codeLine="12" fill="#FEFECE" filter="url(#f1qevf84q08oal)" height="153.0391" id="StudyAdapter" style="stroke:#A80036;stroke-width:1.5;" width="145" x="488" y="87"/><ellipse cx="521.45" cy="107.0938" fill="#FF69B4" rx="11" ry="11" style="stroke:#A80036;stroke-width:1.0;"/><path d="M524.2156,102.9688 Q524.3719,102.75 524.5594,102.6406 Q524.7469,102.5313 524.9656,102.5313 Q525.3406,102.5313 525.575,102.7969 Q525.8094,103.0469 525.8094,103.6563 L525.8094,105.1094 Q525.8094,105.7188 525.575,105.9844 Q525.3406,106.25 524.9656,106.25 Q524.6219,106.25 524.4188,106.0469 Q524.2156,105.8594 524.1063,105.3438 Q524.0594,104.9844 523.8719,104.7969 Q523.5438,104.4219 522.9344,104.2031 Q522.325,103.9844 521.7,103.9844 Q520.9344,103.9844 520.2938,104.3125 Q519.6688,104.6406 519.1688,105.3906 Q518.6844,106.1406 518.6844,107.1719 L518.6844,108.2656 Q518.6844,109.5 519.575,110.3281 Q520.4656,111.1406 522.0594,111.1406 Q522.9969,111.1406 523.6531,110.8906 Q524.0438,110.7344 524.4656,110.2969 Q524.7313,110.0313 524.8719,109.9531 Q525.0281,109.875 525.2313,109.875 Q525.5594,109.875 525.8094,110.1406 Q526.075,110.3906 526.075,110.7344 Q526.075,111.0781 525.7313,111.4844 Q525.2313,112.0625 524.4344,112.3906 Q523.3563,112.8438 522.0594,112.8438 Q520.5438,112.8438 519.3406,112.2188 Q518.3563,111.7188 517.6688,110.6563 Q516.9813,109.5781 516.9813,108.2969 L516.9813,107.1406 Q516.9813,105.8125 517.5906,104.6719 Q518.2156,103.5156 519.3094,102.9063 Q520.4031,102.2813 521.6375,102.2813 Q522.3719,102.2813 523.0125,102.4531 Q523.6688,102.6094 524.2156,102.9688 Z " fill="#000000"/><text fill="#000000" font-family="sans-serif" font-size="12" font-style="italic" lengthAdjust="spacing" textLength="45" x="553.05" y="104.457">«Proxy»</text><text fill="#000000" font-family="sans-serif" font-size="12" lengthAdjust="spacing" textLength="72" x="539.55" y="119.5508">StudyAdapter</text><line style="stroke:#A80036;stroke-width:1.5;" x1="489" x2="632" y1="127.1875" y2="127.1875"/><text fill="#000000" font-family="sans-serif" font-size="11" lengthAdjust="spacing" textLength="26" x="494" y="142.6064">name</text><text fill="#000000" font-family="sans-serif" font-size="11" lengthAdjust="spacing" textLength="30" x="494" y="156.4424">pages</text><text fill="#000000" font-family="sans-serif" font-size="11" lengthAdjust="spacing" textLength="46" x="494" y="170.2783">pageSets</text><text fill="#000000" font-family="sans-serif" font-size="11" lengthAdjust="spacing" textLength="18" x="494" y="184.1143">etc.</text><line style="stroke:#A80036;stroke-width:1.5;" x1="489" x2="632" y1="190.5313" y2="190.5313"/><text fill="#000000" font-family="sans-serif" font-size="11" lengthAdjust="spacing" textLength="113" x="494" y="205.9502">start(command, ...args)</text><text fill="#000000" font-family="sans-serif" font-size="11" lengthAdjust="spacing" textLength="133" x="494" y="219.7861">getInterviewItems(pageSet)</text><text fill="#000000" font-family="sans-serif" font-size="11" lengthAdjust="spacing" textLength="104" x="494" y="233.6221">apply(interviewItems)</text><!--MD5=[96494ea2696cf7f1c80dd97018f75d77]
class InterviewStudioDriver--><rect codeLine="22" fill="#FEFECE" filter="url(#f1qevf84q08oal)" height="53.8359" id="InterviewStudioDriver" style="stroke:#A80036;stroke-width:1.5;" width="160" x="252" y="266.5"/><ellipse cx="272.85" cy="282.5" fill="#ADD1B2" rx="11" ry="11" style="stroke:#A80036;stroke-width:1.0;"/><path d="M275.6156,278.375 Q275.7719,278.1563 275.9594,278.0469 Q276.1469,277.9375 276.3656,277.9375 Q276.7406,277.9375 276.975,278.2031 Q277.2094,278.4531 277.2094,279.0625 L277.2094,280.5156 Q277.2094,281.125 276.975,281.3906 Q276.7406,281.6563 276.3656,281.6563 Q276.0219,281.6563 275.8188,281.4531 Q275.6156,281.2656 275.5063,280.75 Q275.4594,280.3906 275.2719,280.2031 Q274.9438,279.8281 274.3344,279.6094 Q273.725,279.3906 273.1,279.3906 Q272.3344,279.3906 271.6938,279.7188 Q271.0688,280.0469 270.5688,280.7969 Q270.0844,281.5469 270.0844,282.5781 L270.0844,283.6719 Q270.0844,284.9063 270.975,285.7344 Q271.8656,286.5469 273.4594,286.5469 Q274.3969,286.5469 275.0531,286.2969 Q275.4438,286.1406 275.8656,285.7031 Q276.1313,285.4375 276.2719,285.3594 Q276.4281,285.2813 276.6313,285.2813 Q276.9594,285.2813 277.2094,285.5469 Q277.475,285.7969 277.475,286.1406 Q277.475,286.4844 277.1313,286.8906 Q276.6313,287.4688 275.8344,287.7969 Q274.7563,288.25 273.4594,288.25 Q271.9438,288.25 270.7406,287.625 Q269.7563,287.125 269.0688,286.0625 Q268.3813,284.9844 268.3813,283.7031 L268.3813,282.5469 Q268.3813,281.2188 268.9906,280.0781 Q269.6156,278.9219 270.7094,278.3125 Q271.8031,277.6875 273.0375,277.6875 Q273.7719,277.6875 274.4125,277.8594 Q275.0688,278.0156 275.6156,278.375 Z " fill="#000000"/><text fill="#000000" font-family="sans-serif" font-size="12" lengthAdjust="spacing" textLength="115" x="288.15" y="287.4102">InterviewStudioDriver</text><line style="stroke:#A80036;stroke-width:1.5;" x1="253" x2="411" y1="298.5" y2="298.5"/><text fill="#000000" font-family="sans-serif" font-size="11" lengthAdjust="spacing" textLength="148" x="258" y="313.9189">save(study, patient, interview)</text><!--MD5=[42e051526855f1b58eca2ca2a9fbc8a1]
class UpdateItemCommand--><rect codeLine="26" fill="#FEFECE" filter="url(#f1qevf84q08oal)" height="32" id="UpdateItemCommand" style="stroke:#A80036;stroke-width:1.5;" width="155" x="18" y="7"/><ellipse cx="33" cy="23" fill="#ADD1B2" rx="11" ry="11" style="stroke:#A80036;stroke-width:1.0;"/><path d="M35.7656,18.875 Q35.9219,18.6563 36.1094,18.5469 Q36.2969,18.4375 36.5156,18.4375 Q36.8906,18.4375 37.125,18.7031 Q37.3594,18.9531 37.3594,19.5625 L37.3594,21.0156 Q37.3594,21.625 37.125,21.8906 Q36.8906,22.1563 36.5156,22.1563 Q36.1719,22.1563 35.9688,21.9531 Q35.7656,21.7656 35.6563,21.25 Q35.6094,20.8906 35.4219,20.7031 Q35.0938,20.3281 34.4844,20.1094 Q33.875,19.8906 33.25,19.8906 Q32.4844,19.8906 31.8438,20.2188 Q31.2188,20.5469 30.7188,21.2969 Q30.2344,22.0469 30.2344,23.0781 L30.2344,24.1719 Q30.2344,25.4063 31.125,26.2344 Q32.0156,27.0469 33.6094,27.0469 Q34.5469,27.0469 35.2031,26.7969 Q35.5938,26.6406 36.0156,26.2031 Q36.2813,25.9375 36.4219,25.8594 Q36.5781,25.7813 36.7813,25.7813 Q37.1094,25.7813 37.3594,26.0469 Q37.625,26.2969 37.625,26.6406 Q37.625,26.9844 37.2813,27.3906 Q36.7813,27.9688 35.9844,28.2969 Q34.9063,28.75 33.6094,28.75 Q32.0938,28.75 30.8906,28.125 Q29.9063,27.625 29.2188,26.5625 Q28.5313,25.4844 28.5313,24.2031 L28.5313,23.0469 Q28.5313,21.7188 29.1406,20.5781 Q29.7656,19.4219 30.8594,18.8125 Q31.9531,18.1875 33.1875,18.1875 Q33.9219,18.1875 34.5625,18.3594 Q35.2188,18.5156 35.7656,18.875 Z " fill="#000000"/><text fill="#000000" font-family="sans-serif" font-size="12" lengthAdjust="spacing" textLength="123" x="47" y="27.9102">UpdateItemCommand</text><!--MD5=[0b9207cc938f9f5d7dcdd4f208bb5239]
class PatientAdapter--><rect codeLine="29" fill="#FEFECE" filter="url(#f1qevf84q08oal)" height="62.0234" id="PatientAdapter" style="stroke:#A80036;stroke-width:1.5;" width="112" x="276" y="162.5"/><ellipse cx="291" cy="182.5938" fill="#FF69B4" rx="11" ry="11" style="stroke:#A80036;stroke-width:1.0;"/><path d="M293.7656,178.4688 Q293.9219,178.25 294.1094,178.1406 Q294.2969,178.0313 294.5156,178.0313 Q294.8906,178.0313 295.125,178.2969 Q295.3594,178.5469 295.3594,179.1563 L295.3594,180.6094 Q295.3594,181.2188 295.125,181.4844 Q294.8906,181.75 294.5156,181.75 Q294.1719,181.75 293.9688,181.5469 Q293.7656,181.3594 293.6563,180.8438 Q293.6094,180.4844 293.4219,180.2969 Q293.0938,179.9219 292.4844,179.7031 Q291.875,179.4844 291.25,179.4844 Q290.4844,179.4844 289.8438,179.8125 Q289.2188,180.1406 288.7188,180.8906 Q288.2344,181.6406 288.2344,182.6719 L288.2344,183.7656 Q288.2344,185 289.125,185.8281 Q290.0156,186.6406 291.6094,186.6406 Q292.5469,186.6406 293.2031,186.3906 Q293.5938,186.2344 294.0156,185.7969 Q294.2813,185.5313 294.4219,185.4531 Q294.5781,185.375 294.7813,185.375 Q295.1094,185.375 295.3594,185.6406 Q295.625,185.8906 295.625,186.2344 Q295.625,186.5781 295.2813,186.9844 Q294.7813,187.5625 293.9844,187.8906 Q292.9063,188.3438 291.6094,188.3438 Q290.0938,188.3438 288.8906,187.7188 Q287.9063,187.2188 287.2188,186.1563 Q286.5313,185.0781 286.5313,183.7969 L286.5313,182.6406 Q286.5313,181.3125 287.1406,180.1719 Q287.7656,179.0156 288.8594,178.4063 Q289.9531,177.7813 291.1875,177.7813 Q291.9219,177.7813 292.5625,177.9531 Q293.2188,178.1094 293.7656,178.4688 Z " fill="#000000"/><text fill="#000000" font-family="sans-serif" font-size="12" font-style="italic" lengthAdjust="spacing" textLength="45" x="322.5" y="179.957">«Proxy»</text><text fill="#000000" font-family="sans-serif" font-size="12" lengthAdjust="spacing" textLength="80" x="305" y="195.0508">PatientAdapter</text><line style="stroke:#A80036;stroke-width:1.5;" x1="277" x2="387" y1="202.6875" y2="202.6875"/><text fill="#000000" font-family="sans-serif" font-size="11" lengthAdjust="spacing" textLength="51" x="282" y="218.1064">interviews</text><!--MD5=[a026c19c1d127e0f52169793444cee9f]
reverse link UpdateItemCommand to VueComponent--><path codeLine="34" d="M95.5,44.45 C95.5,54.28 95.5,64.1 95.5,73.93 " fill="none" id="UpdateItemCommand-backto-VueComponent" style="stroke:#A80036;stroke-width:1.0;stroke-dasharray:7.0,7.0;"/><polygon fill="#A80036" points="95.5,39.31,91.5,48.31,95.5,44.31,99.5,48.31,95.5,39.31" style="stroke:#A80036;stroke-width:1.0;"/><!--MD5=[6d0ba04ffa163b378facf2fc26645d2e]
link VueComponent to StudyAdapter--><path codeLine="35" d="M184.34,100.64 C251.62,100.58 345.27,107.74 420,141 C454.95,156.56 448.13,196.97 482.17,200.72 " fill="none" id="VueComponent-to-StudyAdapter" style="stroke:#A80036;stroke-width:1.0;stroke-dasharray:7.0,7.0;"/><polygon fill="#A80036" points="487.5,201,478.7308,196.5167,482.5074,200.7282,478.2959,204.5048,487.5,201" style="stroke:#A80036;stroke-width:1.0;"/><!--MD5=[6dfe7dd7a266ee5dc16a37911c8cfc8a]
link VueComponent to Store--><path codeLine="36" d="M95.5,148.02 C95.5,148.02 95.5,154.6 95.5,157.38 " fill="none" id="VueComponent-Store" style="stroke:#A80036;stroke-width:1.0;"/><polygon fill="#A80036" points="95.5,170.62,99.5099,161.6244,95.5055,165.62,91.5099,161.6156,95.5,170.62" style="stroke:#A80036;stroke-width:1.0;"/><line style="stroke:#A80036;stroke-width:1.0;" x1="95.5055" x2="95.5" y1="165.62" y2="157.625"/><polygon fill="#FFFFFF" points="95.5,136.02,91.5,142.02,95.5,148.02,99.5,142.02,95.5,136.02" style="stroke:#A80036;stroke-width:1.0;"/><!--MD5=[c5fd5bbde8537336b2c2c161d425d27f]
link Store to InterviewStudioDriver--><path codeLine="37" d="M176.5,265 C213.37,265 212.49,305.88 245.83,309.71 " fill="none" id="Store-to-InterviewStudioDriver" style="stroke:#A80036;stroke-width:1.0;stroke-dasharray:7.0,7.0;"/><polygon fill="#A80036" points="251,310,242.2308,305.5167,246.0074,309.7282,241.7959,313.5048,251,310" style="stroke:#A80036;stroke-width:1.0;"/><!--MD5=[94530eebeee7d09b60b7bc51dff2df89]
link Store to PatientAdapter--><path codeLine="38" d="M176.5,231 C219.19,231 229.77,215.3 269.95,214.08 " fill="none" id="Store-to-PatientAdapter" style="stroke:#A80036;stroke-width:1.0;stroke-dasharray:7.0,7.0;"/><polygon fill="#A80036" points="275,214,265.9326,210.1553,270.0007,214.0859,266.0701,218.1541,275,214" style="stroke:#A80036;stroke-width:1.0;"/><!--MD5=[9bb6f2952a2de66c590c1980bd268458]
link PatientAdapter to StudyAdapter--><path codeLine="39" d="M389,214 C430.9,214 442.72,214 482.03,214 " fill="none" id="PatientAdapter-to-StudyAdapter" style="stroke:#A80036;stroke-width:1.0;stroke-dasharray:7.0,7.0;"/><polygon fill="#A80036" points="487.5,214,478.5,210,482.5,214,478.5,218,487.5,214" style="stroke:#A80036;stroke-width:1.0;"/><!--MD5=[369aea8c55443ac3e2fa8cd6b5a2c62f]
link InterviewStudioDriver to StudyAdapter--><path codeLine="40" d="M413,310 C460.73,310 439.66,233.05 482.28,227.33 " fill="none" id="InterviewStudioDriver-to-StudyAdapter" style="stroke:#A80036;stroke-width:1.0;stroke-dasharray:7.0,7.0;"/><polygon fill="#A80036" points="487.5,227,478.2668,223.5725,482.5098,227.3137,478.7687,231.5567,487.5,227" style="stroke:#A80036;stroke-width:1.0;"/><!--MD5=[b9f2b76e39ea96973848f4ae819ad1bd]
@startuml command
class VueComponent as "UpdateItemCommand.vue" << (V, Orange) Vue component >> {
  store: Store
}

class Store {
  currentStudy: StudyAdapter,
  currentPatient: PatientAdapter,
  drivers: StudioDrivers,
  saveItems(items),
}

class StudyAdapter <<(C, HotPink) Proxy>> {
  name
  pages
  pageSets
  etc.
  start(command, ...args)
  getInterviewItems(pageSet)
  apply(interviewItems)
}

class InterviewStudioDriver {
  save(study, patient, interview)
}

class UpdateItemCommand {
}

class PatientAdapter <<(C, HotPink) Proxy>> {
  interviews
}

left to right direction
VueComponent .l.> UpdateItemCommand
VueComponent ..> StudyAdapter::start
VueComponent o-> Store
Store::saveItems ..> InterviewStudioDriver::save
Store::currentPatient ..> PatientAdapter::interviews
PatientAdapter::interviews ..> StudyAdapter::getInterviewItems
InterviewStudioDriver::save ..> StudyAdapter::apply
hide members
show Store members
show VueComponent fields
show StudyAdapter members
show InterviewStudioDriver methods
show PatientAdapter fields
@enduml

PlantUML version 1.2021.8(Sat Jun 26 10:20:59 CEST 2021)
(GPL source distribution)
Java Runtime: OpenJDK Runtime Environment
JVM: OpenJDK 64-Bit Server VM
Default Encoding: Cp1252
Language: en
Country: US
--></g></svg>