<svg id="svg" version="1.1" xmlns="http://www.w3.org/2000/svg" xmlns:xlink="http://www.w3.org/1999/xlink" width="400" height="125.1101321585903" viewBox="0, 0, 400,125.1101321585903"><g id="svgg"><path id="path0" d="M49.417 28.446 C 45.160 28.809,44.665 29.364,44.670 33.761 C 44.676 37.850,44.947 38.286,47.667 38.576 C 54.752 39.333,59.973 44.600,60.063 51.083 C 60.110 54.531,58.623 55.247,53.811 54.092 C 41.533 51.146,30.841 53.852,25.057 61.368 C 20.981 66.664,20.782 77.284,24.648 83.173 C 30.333 91.833,42.436 93.545,55.168 87.492 C 59.419 85.470,58.209 85.623,70.833 85.512 C 83.135 85.405,82.388 85.491,82.916 84.109 C 83.326 83.035,83.198 48.630,82.776 46.500 C 80.207 33.535,67.895 26.872,49.417 28.446 M307.569 28.763 C 288.672 31.334,277.847 48.068,282.088 68.155 C 283.891 76.696,290.432 85.110,295.720 85.691 C 298.559 86.003,322.004 85.793,322.632 85.450 C 323.491 84.981,323.832 84.272,323.833 82.953 C 323.834 80.591,323.358 80.220,320.034 79.996 C 314.027 79.591,309.388 77.140,306.637 72.917 C 304.017 68.895,303.884 65.825,306.281 64.645 L 307.083 64.250 325.167 64.167 C 345.462 64.073,344.070 64.166,344.618 62.864 C 345.493 60.787,344.358 52.322,342.579 47.653 C 337.421 34.113,323.490 26.597,307.569 28.763 M254.211 29.172 C 249.545 29.662,245.387 31.566,241.614 34.937 C 237.859 38.293,236.285 38.122,235.673 34.290 C 235.438 32.818,235.231 32.401,234.513 31.954 L 233.917 31.583 224.333 31.583 C 213.864 31.583,214.170 31.556,213.432 32.554 L 213.083 33.024 213.041 58.387 C 212.994 86.765,212.902 84.574,214.167 85.210 C 215.146 85.703,233.932 85.573,234.613 85.068 C 235.634 84.312,235.576 85.325,235.667 66.750 C 235.761 47.581,235.651 49.118,237.064 47.193 C 240.708 42.229,248.162 42.599,250.737 47.871 C 251.968 50.393,251.895 49.263,251.994 67.333 C 252.095 85.624,252.014 84.546,253.333 85.210 C 254.313 85.703,273.265 85.573,273.946 85.068 C 274.972 84.309,274.912 85.442,274.967 65.667 C 275.020 46.878,274.951 44.173,274.338 41.188 C 272.725 33.323,264.041 28.139,254.211 29.172 M127.667 29.825 C 124.012 30.601,121.547 32.082,118.473 35.346 C 114.775 39.273,113.405 39.078,112.846 34.543 C 112.458 31.397,113.172 31.583,101.500 31.583 C 90.837 31.583,91.180 31.548,90.544 32.711 C 90.126 33.477,90.083 83.426,90.500 84.235 C 91.140 85.476,90.571 85.412,101.304 85.460 C 111.929 85.508,111.604 85.538,112.405 84.446 C 112.747 83.980,112.751 83.835,112.838 67.280 C 112.898 55.769,112.982 50.425,113.108 50.074 C 114.819 45.317,123.153 43.390,130.357 46.085 C 134.297 47.559,134.211 47.749,134.135 37.826 C 134.078 30.332,134.107 30.532,132.949 29.826 C 132.248 29.398,129.676 29.398,127.667 29.825 M315.744 40.089 C 321.928 41.699,325.538 52.356,320.405 53.845 C 319.232 54.185,306.730 54.194,305.770 53.855 C 303.546 53.069,303.014 51.099,304.095 47.650 C 305.961 41.700,310.533 38.732,315.744 40.089 M56.467 63.088 C 59.621 63.809,60.434 65.277,60.295 69.995 C 60.196 73.335,59.936 74.093,58.348 75.685 C 52.842 81.200,43.823 78.459,43.835 71.274 C 43.845 65.510,49.898 61.588,56.467 63.088 " stroke="none" fill="#063d84" fill-rule="evenodd"></path><path id="path1" d="M166.917 27.673 C 146.894 29.665,134.120 46.430,137.853 65.816 C 140.859 81.426,153.940 91.192,171.833 91.182 C 187.657 91.174,200.031 83.693,204.777 71.264 C 208.415 61.736,207.491 50.552,202.384 42.295 C 197.648 34.638,189.589 29.465,180.083 27.978 C 177.614 27.591,169.599 27.406,166.917 27.673 M174.200 39.519 C 179.563 40.647,182.500 47.600,182.500 59.167 C 182.500 72.326,178.668 79.434,171.833 78.953 C 165.841 78.532,162.766 72.574,162.394 60.667 C 161.945 46.238,166.589 37.918,174.200 39.519 M334.244 87.843 C 332.880 88.243,332.502 89.308,332.502 92.750 C 332.502 96.440,332.864 97.304,334.567 97.670 C 336.360 98.055,376.976 97.812,377.667 97.412 C 378.750 96.784,378.917 96.163,378.917 92.750 C 378.917 89.337,378.750 88.716,377.667 88.088 C 377.032 87.720,335.462 87.485,334.244 87.843 " stroke="none" fill="#a50624" fill-rule="evenodd"></path><path id="path2" d="M49.537 27.009 C 43.822 27.518,43.036 28.465,43.197 34.653 C 43.303 38.719,43.789 39.514,46.375 39.851 C 50.360 40.371,51.292 40.638,53.165 41.799 C 56.167 43.661,58.201 46.817,58.603 50.234 C 58.916 52.896,57.690 53.546,53.984 52.685 C 37.818 48.927,24.153 54.732,21.147 66.634 C 19.480 73.233,20.685 80.325,24.271 85.021 C 30.711 93.454,42.864 94.858,55.940 88.679 C 59.619 86.940,59.027 87.006,70.950 87.003 C 83.491 86.999,83.698 86.964,84.353 84.709 C 84.684 83.569,84.692 50.239,84.362 47.750 C 82.431 33.194,69.117 25.264,49.537 27.009 M308.833 27.194 C 288.498 29.110,276.052 47.253,280.659 68.265 C 282.561 76.941,289.305 86.010,294.579 86.985 C 295.882 87.226,321.773 87.230,322.817 86.989 C 324.644 86.568,325.235 85.556,325.244 82.833 C 325.255 79.448,324.646 78.860,320.906 78.644 C 316.345 78.381,313.454 77.403,310.362 75.078 C 307.497 72.924,305.315 68.123,306.512 66.605 C 307.359 65.530,306.272 65.592,326.083 65.500 C 345.758 65.409,344.532 65.474,345.438 64.474 C 346.207 63.625,346.251 63.396,346.230 60.333 C 346.086 39.100,330.363 25.167,308.833 27.194 M253.250 27.841 C 249.095 28.484,245.230 30.201,241.857 32.903 C 238.330 35.729,237.795 35.744,237.010 33.044 C 236.570 31.529,235.813 30.642,234.708 30.344 C 233.279 29.960,213.864 30.183,213.167 30.592 C 211.396 31.633,211.487 30.032,211.539 59.088 L 211.583 84.426 212.007 85.248 C 212.335 85.887,212.613 86.165,213.252 86.493 L 214.075 86.917 224.329 86.917 L 234.583 86.917 235.278 86.545 C 237.073 85.586,236.997 86.404,237.002 67.833 C 237.008 48.668,236.962 49.163,238.871 47.299 C 242.342 43.909,247.471 44.482,249.492 48.485 C 250.597 50.673,250.551 49.898,250.655 68.083 L 250.750 84.583 251.169 85.331 C 251.444 85.823,251.843 86.222,252.335 86.498 L 253.083 86.917 262.880 86.966 C 274.708 87.025,275.035 86.983,275.956 85.283 C 276.611 84.075,276.577 45.514,275.918 41.761 C 274.728 34.983,269.322 29.822,261.583 28.077 C 260.192 27.763,254.750 27.609,253.250 27.841 M128.863 28.169 C 124.785 28.738,121.599 30.330,118.301 33.447 C 115.446 36.146,115.001 36.110,114.184 33.116 C 113.352 30.066,114.167 30.250,101.500 30.250 L 91.083 30.250 90.395 30.645 C 89.997 30.873,89.539 31.330,89.311 31.728 L 88.917 32.417 88.873 58.225 C 88.827 85.307,88.816 84.891,89.586 85.806 C 90.546 86.947,90.200 86.911,100.979 86.966 C 111.892 87.021,112.134 87.002,113.155 86.028 C 114.195 85.036,114.164 85.571,114.169 68.417 C 114.174 49.751,114.152 49.998,115.931 48.532 C 119.285 45.767,124.976 45.480,130.812 47.780 C 133.535 48.854,134.632 48.762,135.333 47.402 C 135.646 46.796,135.790 33.805,135.510 31.512 C 135.144 28.517,133.238 27.558,128.863 28.169 M60.429 28.511 C 72.409 29.677,80.778 36.415,82.776 46.500 C 83.198 48.630,83.326 83.035,82.916 84.109 C 82.388 85.491,83.135 85.405,70.833 85.512 C 58.209 85.623,59.419 85.470,55.168 87.492 C 42.436 93.545,30.333 91.833,24.648 83.173 C 20.782 77.284,20.981 66.664,25.057 61.368 C 30.841 53.852,41.533 51.146,53.811 54.092 C 58.623 55.247,60.110 54.531,60.063 51.083 C 59.973 44.600,54.752 39.333,47.667 38.576 C 44.947 38.286,44.676 37.850,44.670 33.761 C 44.664 28.613,45.005 28.423,54.346 28.361 C 56.691 28.346,59.428 28.413,60.429 28.511 M317.856 28.743 C 333.867 30.874,344.267 42.626,344.781 59.167 C 344.890 62.692,344.772 63.253,343.805 63.781 C 343.281 64.066,342.236 64.088,325.167 64.167 L 307.083 64.250 306.281 64.645 C 303.884 65.825,304.017 68.895,306.637 72.917 C 309.388 77.140,314.027 79.591,320.034 79.996 C 323.358 80.220,323.834 80.591,323.833 82.953 C 323.832 84.272,323.491 84.981,322.632 85.450 C 322.004 85.793,298.559 86.003,295.720 85.691 C 290.432 85.110,283.891 76.696,282.088 68.155 C 278.134 49.431,286.936 33.887,303.986 29.483 C 307.703 28.523,313.773 28.199,317.856 28.743 M259.167 29.171 C 266.913 29.979,273.033 34.826,274.338 41.188 C 274.951 44.173,275.020 46.878,274.967 65.667 C 274.912 85.442,274.972 84.309,273.946 85.068 C 273.265 85.573,254.313 85.703,253.333 85.210 C 252.014 84.546,252.095 85.624,251.994 67.333 C 251.895 49.263,251.968 50.393,250.737 47.871 C 248.162 42.599,240.708 42.229,237.064 47.193 C 235.651 49.118,235.761 47.581,235.667 66.750 C 235.576 85.325,235.634 84.312,234.613 85.068 C 233.932 85.573,215.146 85.703,214.167 85.210 C 212.902 84.574,212.994 86.765,213.041 58.387 L 213.083 33.024 213.432 32.554 C 214.170 31.556,213.864 31.583,224.333 31.583 L 233.917 31.583 234.513 31.954 C 235.231 32.401,235.438 32.818,235.673 34.290 C 236.285 38.122,237.859 38.293,241.614 34.937 C 246.667 30.422,252.569 28.483,259.167 29.171 M132.949 29.826 C 134.107 30.532,134.078 30.332,134.135 37.826 C 134.211 47.749,134.297 47.559,130.357 46.085 C 123.153 43.390,114.819 45.317,113.108 50.074 C 112.982 50.425,112.898 55.769,112.838 67.280 C 112.751 83.835,112.747 83.980,112.405 84.446 C 111.604 85.538,111.929 85.508,101.304 85.460 C 90.571 85.412,91.140 85.476,90.500 84.235 C 90.083 83.426,90.126 33.477,90.544 32.711 C 91.180 31.548,90.837 31.583,101.500 31.583 C 113.172 31.583,112.458 31.397,112.846 34.543 C 113.405 39.078,114.775 39.273,118.473 35.346 C 121.547 32.082,124.012 30.601,127.667 29.825 C 129.676 29.398,132.248 29.398,132.949 29.826 M310.851 40.097 C 307.804 40.916,305.344 43.667,304.095 47.650 C 303.014 51.099,303.546 53.069,305.770 53.855 C 306.730 54.194,319.232 54.185,320.405 53.845 C 322.687 53.183,323.335 50.987,322.325 47.333 C 320.769 41.705,316.017 38.708,310.851 40.097 M315.152 41.424 C 319.945 42.553,323.506 50.527,320.006 52.292 C 318.939 52.830,307.555 52.873,306.388 52.344 C 304.650 51.554,304.605 49.512,306.249 46.040 C 308.039 42.262,311.374 40.533,315.152 41.424 M50.917 63.108 C 42.490 64.897,41.191 75.884,49.118 78.332 C 52.939 79.512,58.497 77.049,59.833 73.583 C 60.727 71.263,60.445 66.028,59.353 64.667 C 58.062 63.057,54.370 62.375,50.917 63.108 M56.347 64.504 C 58.391 65.054,59.171 66.879,58.911 70.500 C 58.687 73.613,57.823 74.919,55.107 76.250 C 50.688 78.415,46.425 76.814,45.389 72.601 C 44.091 67.319,50.156 62.837,56.347 64.504 " stroke="none" fill="#7494bc" fill-rule="evenodd"></path><path id="path3" d="M50.750 25.662 C 42.902 26.153,42.119 26.852,42.029 33.454 C 41.939 40.083,42.371 40.756,47.042 41.249 C 52.676 41.843,56.272 44.782,57.172 49.528 C 57.568 51.617,56.764 52.000,53.530 51.259 C 37.798 47.658,23.504 53.765,20.108 65.539 C 16.232 78.978,23.903 91.891,36.719 93.505 C 43.260 94.328,49.287 93.212,56.469 89.849 C 59.848 88.266,59.218 88.334,70.550 88.332 C 84.218 88.330,84.657 88.244,85.786 85.343 C 86.150 84.408,86.339 53.213,86.003 49.667 C 84.435 33.155,71.525 24.364,50.750 25.662 M310.237 25.858 C 295.694 26.566,284.340 35.261,279.844 49.133 C 278.230 54.114,278.019 53.905,277.662 46.979 C 277.331 40.555,276.627 37.940,274.372 34.750 C 267.852 25.526,253.108 23.573,242.874 30.579 C 242.256 31.002,241.276 31.682,240.698 32.091 C 239.185 33.158,238.704 33.066,238.095 31.592 C 237.646 30.505,237.009 29.820,236.018 29.355 L 235.083 28.917 224.250 28.917 C 208.853 28.917,210.338 27.476,210.165 42.583 C 210.053 52.413,209.974 53.824,209.519 54.167 C 209.457 54.212,209.456 54.925,209.515 55.750 C 209.635 57.420,209.555 63.399,209.406 63.867 C 209.354 64.032,209.385 64.167,209.475 64.167 C 209.931 64.167,210.043 65.972,210.164 75.250 C 210.307 86.204,210.326 86.335,211.987 87.455 C 213.153 88.240,213.301 88.250,224.250 88.250 C 236.432 88.250,236.394 88.255,237.591 86.429 C 238.235 85.446,238.238 85.360,238.329 67.583 L 238.417 50.250 238.908 49.364 C 240.863 45.833,246.021 45.324,248.014 48.465 C 249.304 50.498,249.231 49.415,249.338 68.167 C 249.441 86.333,249.398 85.563,250.375 86.748 C 251.639 88.282,252.463 88.372,264.528 88.294 C 278.632 88.203,277.519 89.158,277.696 77.000 C 277.861 65.690,278.036 65.126,279.750 70.389 C 282.847 79.902,289.471 87.666,295.075 88.351 C 297.689 88.671,323.118 88.464,323.998 88.116 C 325.850 87.383,326.388 86.330,326.470 83.278 C 326.603 78.359,325.856 77.543,321.020 77.323 C 316.877 77.136,314.066 76.248,311.404 74.289 C 309.170 72.644,307.121 69.152,307.646 67.884 C 308.070 66.860,306.921 66.924,326.500 66.833 L 344.417 66.750 345.244 66.369 C 347.379 65.384,347.787 64.029,347.505 58.868 C 346.350 37.804,331.685 24.814,310.237 25.858 M129.742 26.856 C 125.741 27.138,122.159 28.555,118.961 31.120 C 116.344 33.220,116.127 33.242,115.253 31.505 C 113.924 28.867,114.305 28.942,101.949 28.875 C 89.227 28.806,89.111 28.825,88.022 31.149 L 87.583 32.083 87.462 39.667 C 87.210 55.473,87.125 82.788,87.324 83.961 C 87.691 86.124,88.531 87.300,90.178 87.953 C 91.158 88.342,111.206 88.410,112.500 88.029 C 113.742 87.664,114.419 87.115,114.942 86.050 L 115.417 85.083 115.500 68.167 L 115.583 51.250 115.957 50.551 C 117.720 47.252,124.773 46.549,130.610 49.091 C 131.596 49.521,132.972 49.971,133.729 50.112 C 134.474 50.252,135.206 50.475,135.356 50.608 C 135.896 51.089,137.952 45.092,137.441 44.527 C 137.010 44.051,136.836 41.614,136.835 36.050 C 136.833 30.301,136.741 29.513,135.942 28.451 C 134.919 27.092,133.087 26.621,129.742 26.856 M61.801 27.239 C 74.737 29.162,82.878 36.563,84.362 47.750 C 84.692 50.239,84.684 83.569,84.353 84.709 C 83.698 86.964,83.491 86.999,70.950 87.003 C 59.027 87.006,59.619 86.940,55.940 88.679 C 51.571 90.743,49.077 91.576,45.699 92.098 C 33.232 94.023,23.433 88.423,21.071 78.022 C 16.892 59.620,32.414 47.671,53.984 52.685 C 57.690 53.546,58.916 52.896,58.603 50.234 C 58.201 46.817,56.167 43.661,53.165 41.799 C 51.292 40.638,50.360 40.371,46.375 39.851 C 43.789 39.514,43.303 38.719,43.197 34.653 C 43.036 28.465,43.822 27.518,49.537 27.009 C 52.034 26.786,59.727 26.931,61.801 27.239 M316.500 27.176 C 334.351 28.806,346.106 41.916,346.230 60.333 C 346.251 63.396,346.207 63.625,345.438 64.474 C 344.532 65.474,345.758 65.409,326.083 65.500 C 306.272 65.592,307.359 65.530,306.512 66.605 C 305.315 68.123,307.497 72.924,310.362 75.078 C 313.454 77.403,316.345 78.381,320.906 78.644 C 324.646 78.860,325.255 79.448,325.244 82.833 C 325.235 85.556,324.644 86.568,322.817 86.989 C 321.773 87.230,295.882 87.226,294.579 86.985 C 289.305 86.010,282.561 76.941,280.659 68.265 C 275.384 44.211,292.181 24.956,316.500 27.176 M261.583 28.077 C 269.322 29.822,274.728 34.983,275.918 41.761 C 276.577 45.514,276.611 84.075,275.956 85.283 C 275.035 86.983,274.708 87.025,262.880 86.966 L 253.083 86.917 252.335 86.498 C 251.843 86.222,251.444 85.823,251.169 85.331 L 250.750 84.583 250.655 68.083 C 250.551 49.898,250.597 50.673,249.492 48.485 C 247.471 44.482,242.342 43.909,238.871 47.299 C 236.962 49.163,237.008 48.668,237.002 67.833 C 236.997 86.404,237.073 85.586,235.278 86.545 L 234.583 86.917 224.329 86.917 L 214.075 86.917 213.252 86.493 C 212.613 86.165,212.335 85.887,212.007 85.248 L 211.583 84.426 211.539 59.088 C 211.487 30.032,211.396 31.633,213.167 30.592 C 213.864 30.183,233.279 29.960,234.708 30.344 C 235.813 30.642,236.570 31.529,237.010 33.044 C 237.795 35.744,238.330 35.729,241.857 32.903 C 247.323 28.524,255.114 26.618,261.583 28.077 M133.698 28.460 C 135.545 29.277,135.700 30.199,135.632 39.917 C 135.579 47.499,135.577 47.522,134.650 48.207 C 133.940 48.733,132.948 48.622,130.812 47.780 C 124.976 45.480,119.285 45.767,115.931 48.532 C 114.152 49.998,114.174 49.751,114.169 68.417 C 114.164 85.571,114.195 85.036,113.155 86.028 C 112.134 87.002,111.892 87.021,100.979 86.966 C 90.200 86.911,90.546 86.947,89.586 85.806 C 88.816 84.891,88.827 85.307,88.873 58.225 L 88.917 32.417 89.311 31.728 C 89.539 31.330,89.997 30.873,90.395 30.645 L 91.083 30.250 101.500 30.250 C 114.167 30.250,113.352 30.066,114.184 33.116 C 115.001 36.110,115.446 36.146,118.301 33.447 C 122.904 29.097,129.966 26.809,133.698 28.460 M311.674 41.349 C 306.899 42.285,302.838 50.732,306.388 52.344 C 307.555 52.873,318.939 52.830,320.006 52.292 C 321.400 51.589,321.667 50.188,320.906 47.564 C 319.547 42.872,316.019 40.497,311.674 41.349 M315.178 42.761 C 319.131 43.902,321.776 50.597,318.567 51.341 C 317.643 51.556,308.564 51.539,307.781 51.322 C 306.453 50.953,306.153 49.893,306.826 47.939 C 308.285 43.697,311.505 41.701,315.178 42.761 M52.083 64.323 C 47.279 65.107,44.417 68.646,45.389 72.601 C 46.652 77.738,53.559 78.864,57.480 74.573 C 59.513 72.350,59.529 66.404,57.507 65.042 C 56.505 64.366,53.918 64.024,52.083 64.323 M56.260 65.932 C 58.197 66.884,58.194 72.190,56.256 73.976 C 51.506 78.355,44.486 74.625,46.980 69.048 C 48.237 66.238,53.374 64.513,56.260 65.932 " stroke="none" fill="#a0b6d1" fill-rule="evenodd"></path><path id="path4" d="M168.500 25.339 C 156.044 26.014,145.420 32.099,139.637 41.872 C 138.996 42.955,138.300 44.046,138.091 44.296 C 137.883 44.546,137.509 45.462,137.261 46.333 C 137.013 47.204,136.553 48.563,136.238 49.354 C 135.899 50.208,135.665 51.087,135.663 51.521 C 135.662 51.922,135.548 53.000,135.412 53.917 C 132.540 73.162,144.567 89.529,164.001 92.822 C 183.114 96.061,201.095 87.382,206.813 72.158 C 210.501 62.338,210.633 57.459,207.461 48.083 C 202.483 33.365,189.134 24.810,171.750 25.195 C 171.200 25.207,169.737 25.272,168.500 25.339 M180.083 27.978 C 199.265 30.978,210.805 48.671,205.915 67.583 C 202.103 82.329,189.330 91.173,171.833 91.182 C 153.940 91.192,140.859 81.426,137.853 65.816 C 134.120 46.430,146.894 29.665,166.917 27.673 C 169.599 27.406,177.614 27.591,180.083 27.978 M170.750 39.565 C 165.039 40.957,162.018 48.587,162.394 60.667 C 162.766 72.574,165.841 78.532,171.833 78.953 C 178.668 79.434,182.500 72.326,182.500 59.167 C 182.500 45.272,178.017 37.793,170.750 39.565 M174.572 41.958 C 178.480 43.348,180.815 51.731,180.172 62.065 C 179.539 72.249,177.224 76.583,172.417 76.583 C 166.887 76.583,164.469 70.665,164.712 57.725 C 164.935 45.803,168.656 39.853,174.572 41.958 M334.150 85.502 C 331.026 85.877,330.173 87.432,330.173 92.750 C 330.173 97.651,330.930 99.318,333.387 99.827 C 333.982 99.950,341.050 99.992,356.167 99.961 L 378.083 99.917 378.849 99.562 C 380.853 98.636,381.083 97.934,381.083 92.750 L 381.083 88.583 380.615 87.629 C 380.114 86.609,379.617 86.164,378.469 85.706 C 377.686 85.394,336.631 85.205,334.150 85.502 M377.667 88.088 C 378.750 88.716,378.917 89.337,378.917 92.750 C 378.917 96.163,378.750 96.784,377.667 97.412 C 376.976 97.812,336.360 98.055,334.567 97.670 C 332.864 97.304,332.502 96.440,332.502 92.750 C 332.502 89.308,332.880 88.243,334.244 87.843 C 335.462 87.485,377.032 87.720,377.667 88.088 " stroke="none" fill="#dc9cab" fill-rule="evenodd"></path></g></svg>