<svg id="svg" version="1.1" xmlns="http://www.w3.org/2000/svg" xmlns:xlink="http://www.w3.org/1999/xlink" width="400" height="125.1101321585903" viewBox="0, 0, 400,125.1101321585903"><g id="svgg"><path id="path0" d="M47.583 27.674 C 44.668 28.308,44.032 28.461,43.861 28.566 C 43.498 28.790,43.593 39.330,43.958 39.347 C 44.119 39.354,45.413 39.384,46.833 39.413 C 48.736 39.453,49.614 39.540,50.167 39.746 C 50.579 39.900,51.292 40.141,51.750 40.282 C 52.208 40.423,52.738 40.680,52.927 40.853 C 53.117 41.025,53.331 41.167,53.405 41.167 C 53.478 41.167,53.961 41.528,54.477 41.970 C 54.994 42.412,55.577 42.882,55.772 43.014 C 56.178 43.288,57.500 44.914,57.500 45.139 C 57.500 45.221,57.645 45.473,57.823 45.699 C 58.001 45.925,58.198 46.329,58.262 46.596 C 58.326 46.864,58.567 47.533,58.799 48.083 C 59.163 48.948,59.231 49.401,59.297 51.432 C 59.396 54.466,59.163 54.929,57.867 54.272 C 57.619 54.146,57.042 53.989,56.583 53.923 C 56.125 53.857,55.413 53.663,55.000 53.492 C 54.587 53.321,53.549 53.064,52.692 52.921 C 51.835 52.778,50.995 52.586,50.824 52.495 C 49.776 51.934,39.497 51.985,38.379 52.557 C 38.125 52.687,37.354 52.887,36.667 53.002 C 35.979 53.117,35.156 53.351,34.836 53.522 C 34.517 53.693,33.992 53.881,33.670 53.941 C 33.347 54.000,32.915 54.179,32.710 54.339 C 32.504 54.498,32.071 54.679,31.746 54.740 C 31.422 54.801,30.886 55.034,30.555 55.259 C 30.224 55.483,29.890 55.667,29.812 55.667 C 29.475 55.667,27.611 57.276,25.917 59.030 C 24.173 60.836,23.824 61.287,23.108 62.658 C 22.938 62.984,22.701 63.362,22.581 63.500 C 22.461 63.637,22.284 64.179,22.188 64.704 C 22.092 65.229,21.903 65.871,21.768 66.132 C 20.738 68.123,20.724 76.095,21.745 78.693 C 21.877 79.028,22.072 79.802,22.178 80.414 C 22.285 81.025,22.469 81.562,22.587 81.608 C 22.706 81.653,22.898 81.929,23.015 82.220 C 23.132 82.512,23.401 82.962,23.614 83.221 C 23.826 83.480,24.000 83.765,24.000 83.853 C 24.000 84.065,25.568 85.956,26.231 86.543 C 26.517 86.796,27.133 87.347,27.601 87.768 C 28.489 88.566,29.346 89.139,30.333 89.596 C 30.654 89.745,31.029 89.965,31.167 90.084 C 31.304 90.204,31.754 90.391,32.167 90.500 C 32.579 90.608,33.142 90.832,33.417 90.997 C 35.329 92.145,46.028 92.145,48.583 90.997 C 48.950 90.833,49.680 90.619,50.204 90.522 C 50.729 90.425,51.329 90.237,51.538 90.103 C 51.746 89.970,52.237 89.776,52.628 89.673 C 53.020 89.570,53.612 89.301,53.943 89.076 C 54.275 88.851,54.677 88.667,54.836 88.667 C 54.996 88.667,55.216 88.558,55.326 88.425 C 55.436 88.292,55.802 88.095,56.138 87.987 C 56.475 87.880,56.883 87.675,57.045 87.533 C 57.207 87.392,57.842 87.064,58.457 86.805 L 59.574 86.333 71.583 86.333 C 81.530 86.333,83.649 86.294,83.921 86.103 C 84.841 85.459,84.087 45.766,83.119 43.900 C 82.971 43.616,82.760 43.016,82.649 42.567 C 82.538 42.118,82.314 41.578,82.152 41.367 C 81.989 41.157,81.806 40.755,81.744 40.474 C 81.683 40.194,81.453 39.699,81.233 39.376 C 81.013 39.052,80.833 38.718,80.833 38.634 C 80.833 38.202,77.234 34.301,76.167 33.576 C 75.846 33.359,75.170 32.896,74.666 32.549 C 74.161 32.201,73.542 31.825,73.291 31.712 C 73.039 31.599,72.833 31.431,72.833 31.337 C 72.833 31.243,72.694 31.167,72.523 31.167 C 72.353 31.167,71.950 30.988,71.629 30.770 C 71.308 30.552,70.754 30.280,70.398 30.166 C 70.041 30.052,69.634 29.857,69.493 29.735 C 69.352 29.612,68.721 29.392,68.090 29.246 C 67.460 29.099,66.743 28.876,66.497 28.748 C 66.251 28.621,65.372 28.408,64.544 28.275 C 63.716 28.141,62.861 27.931,62.644 27.808 C 62.180 27.544,48.732 27.424,47.583 27.674 M308.667 27.603 C 308.346 27.641,307.708 27.781,307.250 27.915 C 306.792 28.049,305.742 28.240,304.917 28.339 C 304.092 28.437,303.256 28.623,303.059 28.751 C 302.863 28.880,302.205 29.100,301.598 29.241 C 300.990 29.382,300.326 29.604,300.122 29.735 C 299.917 29.866,299.412 30.061,299.000 30.169 C 298.587 30.276,298.133 30.469,297.989 30.597 C 297.845 30.725,297.470 30.926,297.156 31.045 C 296.538 31.277,295.861 31.654,294.773 32.372 C 294.394 32.622,294.008 32.829,293.917 32.831 C 293.128 32.849,287.059 38.420,286.580 39.566 C 286.459 39.854,286.205 40.231,286.014 40.404 C 285.823 40.577,285.667 40.815,285.667 40.934 C 285.667 41.052,285.479 41.352,285.250 41.599 C 285.021 41.846,284.833 42.124,284.833 42.217 C 284.833 42.309,284.646 42.631,284.417 42.931 C 284.188 43.232,284.000 43.547,284.000 43.632 C 284.000 43.717,283.816 44.058,283.591 44.390 C 283.366 44.722,283.105 45.276,283.011 45.622 C 282.918 45.967,282.733 46.404,282.600 46.593 C 282.468 46.782,282.234 47.418,282.082 48.006 C 281.929 48.594,281.737 49.201,281.655 49.355 C 281.572 49.509,281.394 50.376,281.258 51.282 C 281.122 52.188,280.880 53.263,280.721 53.673 C 280.287 54.790,280.273 64.874,280.704 66.000 C 280.862 66.412,281.107 67.524,281.248 68.470 C 281.389 69.417,281.607 70.392,281.733 70.637 C 281.859 70.883,282.050 71.509,282.157 72.029 C 282.264 72.549,282.455 73.060,282.582 73.165 C 282.708 73.270,282.862 73.595,282.923 73.887 C 282.984 74.178,283.251 74.761,283.517 75.181 C 283.783 75.602,284.000 76.024,284.000 76.119 C 284.000 76.215,284.113 76.387,284.252 76.502 C 284.391 76.617,284.641 77.020,284.808 77.397 C 284.976 77.774,285.237 78.186,285.390 78.312 C 285.542 78.438,285.670 78.625,285.673 78.729 C 285.677 78.832,285.902 79.176,286.173 79.494 C 286.445 79.811,286.667 80.150,286.667 80.248 C 286.667 80.393,288.133 81.970,289.027 82.787 C 289.150 82.899,289.349 83.087,289.470 83.204 C 290.928 84.612,292.573 85.953,293.285 86.312 C 294.241 86.795,324.548 86.883,324.732 86.403 C 324.788 86.258,324.833 84.529,324.833 82.561 L 324.833 78.983 323.792 79.117 C 322.180 79.323,318.501 79.267,317.833 79.027 C 317.512 78.911,316.695 78.709,316.017 78.578 C 315.338 78.447,314.663 78.239,314.517 78.115 C 314.370 77.991,313.894 77.758,313.458 77.598 C 313.023 77.437,312.667 77.243,312.667 77.166 C 312.667 77.089,312.397 76.937,312.068 76.828 C 311.073 76.500,310.327 75.975,309.112 74.750 C 307.684 73.310,307.570 73.172,307.431 72.722 C 307.370 72.523,307.172 72.173,306.991 71.943 C 306.437 71.239,305.686 69.693,305.579 69.038 C 305.523 68.696,305.327 67.995,305.143 67.480 C 304.712 66.271,304.777 65.495,305.333 65.215 C 305.661 65.050,309.972 65.004,325.500 65.000 C 336.362 64.998,345.430 64.947,345.650 64.888 L 346.050 64.781 345.942 62.291 C 345.775 58.431,345.193 53.048,344.829 52.000 C 344.654 51.496,344.427 50.596,344.325 50.000 C 344.223 49.404,344.037 48.803,343.912 48.664 C 343.788 48.525,343.607 48.062,343.512 47.635 C 343.416 47.208,343.149 46.505,342.919 46.071 C 342.688 45.638,342.500 45.168,342.500 45.026 C 342.500 44.792,342.201 44.276,341.295 42.949 C 341.120 42.692,340.885 42.242,340.775 41.949 C 340.287 40.661,339.022 39.000,337.226 37.290 C 336.626 36.718,335.587 35.716,334.919 35.063 C 334.250 34.410,333.488 33.761,333.226 33.621 C 332.964 33.480,332.381 33.171,331.929 32.932 C 331.478 32.694,330.991 32.403,330.846 32.285 C 330.702 32.167,330.302 31.943,329.958 31.788 C 329.615 31.632,329.333 31.429,329.333 31.336 C 329.333 31.243,329.234 31.167,329.112 31.167 C 328.990 31.167,328.521 30.978,328.070 30.748 C 327.619 30.517,326.884 30.218,326.437 30.084 C 325.990 29.949,325.525 29.757,325.405 29.657 C 325.284 29.557,324.728 29.368,324.168 29.237 C 323.608 29.107,322.938 28.890,322.678 28.756 C 322.418 28.621,321.512 28.427,320.665 28.324 C 319.817 28.221,318.815 28.021,318.437 27.879 C 317.766 27.627,310.263 27.415,308.667 27.603 M253.482 28.350 C 252.450 28.429,251.375 28.618,250.899 28.804 C 250.450 28.978,249.783 29.175,249.417 29.241 C 249.050 29.307,248.525 29.496,248.250 29.660 C 247.975 29.825,247.450 30.055,247.083 30.171 C 246.717 30.287,246.238 30.521,246.019 30.691 C 245.801 30.861,245.533 31.000,245.424 31.000 C 245.315 31.000,244.931 31.223,244.571 31.495 C 244.211 31.768,243.864 31.993,243.799 31.995 C 243.735 31.998,243.500 32.169,243.278 32.375 C 243.055 32.581,242.508 33.010,242.062 33.327 C 241.615 33.644,240.996 34.169,240.685 34.494 C 239.514 35.716,237.833 37.674,237.833 37.817 C 237.833 38.080,237.391 38.143,236.982 37.939 L 236.583 37.740 236.643 34.467 L 236.702 31.193 236.193 30.930 C 235.410 30.525,213.029 30.531,212.411 30.936 L 212.000 31.205 212.000 58.597 C 212.000 85.507,212.006 85.991,212.322 86.161 C 212.804 86.418,235.677 86.398,236.244 86.139 L 236.671 85.945 236.664 67.497 C 236.661 57.350,236.711 48.907,236.775 48.733 C 237.035 48.026,239.131 45.984,239.965 45.626 C 240.213 45.519,240.542 45.307,240.694 45.155 C 241.687 44.163,246.170 44.252,247.744 45.295 C 248.480 45.782,249.500 46.845,249.500 47.125 C 249.500 47.215,249.648 47.477,249.829 47.707 C 250.010 47.937,250.399 48.791,250.694 49.604 L 251.230 51.083 251.282 68.500 C 251.310 78.079,251.369 86.010,251.412 86.125 C 251.523 86.422,275.336 86.431,275.633 86.133 C 275.787 85.980,275.833 81.509,275.830 67.008 C 275.827 46.707,275.719 42.262,275.187 40.494 C 275.008 39.901,274.809 39.154,274.743 38.833 C 274.677 38.512,274.446 38.038,274.228 37.779 C 274.011 37.520,273.833 37.207,273.833 37.083 C 273.833 36.960,273.646 36.636,273.417 36.364 C 273.188 36.091,273.000 35.816,273.000 35.752 C 273.000 35.501,271.028 33.406,270.000 32.563 C 269.404 32.075,268.785 31.561,268.625 31.421 C 268.465 31.281,268.231 31.167,268.107 31.167 C 267.982 31.167,267.588 30.968,267.232 30.726 C 266.875 30.483,266.342 30.218,266.047 30.136 C 265.752 30.054,265.394 29.870,265.250 29.726 C 265.106 29.582,264.485 29.351,263.869 29.212 C 263.254 29.073,262.550 28.857,262.306 28.733 C 261.417 28.279,256.926 28.084,253.482 28.350 M128.167 28.760 C 127.754 28.890,126.929 29.082,126.333 29.184 C 125.737 29.287,125.025 29.506,124.750 29.670 C 124.475 29.834,123.931 30.062,123.542 30.177 C 123.152 30.292,122.833 30.453,122.833 30.535 C 122.833 30.617,122.553 30.801,122.210 30.944 C 121.418 31.275,120.249 32.173,118.956 33.443 C 118.219 34.167,117.840 34.610,116.950 35.790 C 116.657 36.179,116.248 36.716,116.042 36.983 C 115.835 37.251,115.667 37.586,115.667 37.729 C 115.667 37.985,114.383 39.333,114.139 39.333 C 113.765 39.333,113.666 38.431,113.661 34.969 C 113.657 32.108,113.604 31.181,113.431 30.953 C 113.206 30.656,89.723 30.555,89.428 30.849 C 89.301 30.976,89.298 85.974,89.425 86.179 C 89.577 86.427,113.218 86.382,113.467 86.133 C 113.620 85.980,113.667 81.652,113.667 67.666 L 113.667 49.399 114.216 48.866 C 114.519 48.573,114.846 48.333,114.943 48.333 C 115.041 48.333,115.404 48.108,115.750 47.833 C 116.096 47.558,116.465 47.333,116.569 47.333 C 116.674 47.333,116.944 47.202,117.169 47.042 C 118.965 45.765,125.984 45.103,127.808 46.038 C 128.116 46.196,128.641 46.373,128.975 46.433 C 129.310 46.493,129.921 46.719,130.333 46.936 C 130.746 47.153,131.346 47.442,131.667 47.578 C 131.987 47.715,132.362 47.901,132.500 47.993 C 132.637 48.084,133.012 48.271,133.333 48.409 C 133.654 48.547,134.038 48.748,134.186 48.857 C 135.010 49.459,135.000 49.576,135.000 39.111 C 135.000 29.517,134.995 29.372,134.655 28.939 L 134.309 28.500 131.613 28.511 C 129.769 28.519,128.679 28.597,128.167 28.760 M315.523 40.731 C 315.765 40.858,316.342 41.087,316.805 41.241 C 317.764 41.559,319.936 43.436,320.099 44.088 C 320.153 44.301,320.338 44.604,320.512 44.761 C 320.685 44.917,320.877 45.317,320.939 45.648 C 321.001 45.979,321.193 46.524,321.367 46.859 C 321.554 47.219,321.749 48.104,321.843 49.026 C 321.931 49.882,322.077 50.991,322.168 51.489 C 322.319 52.315,322.301 52.429,321.971 52.781 L 321.609 53.167 313.054 53.167 C 302.765 53.167,303.210 53.314,304.246 50.250 C 304.369 49.883,304.595 49.004,304.746 48.295 C 304.897 47.586,305.089 46.964,305.173 46.913 C 305.256 46.861,305.409 46.504,305.512 46.118 C 305.953 44.465,308.527 41.545,309.833 41.216 C 310.063 41.158,310.550 40.975,310.917 40.809 C 311.764 40.426,314.837 40.374,315.523 40.731 M55.583 63.740 C 56.133 63.869,57.063 64.029,57.649 64.095 C 59.400 64.292,59.333 64.088,59.333 69.260 L 59.333 73.687 58.715 74.427 C 58.374 74.834,58.018 75.167,57.921 75.167 C 57.825 75.167,57.657 75.311,57.546 75.488 C 57.347 75.807,56.959 76.058,55.833 76.595 C 55.512 76.748,55.137 76.941,55.000 77.024 C 53.297 78.044,48.954 78.129,48.076 77.159 C 47.914 76.980,47.688 76.833,47.573 76.833 C 47.150 76.833,45.909 75.601,45.391 74.667 C 44.366 72.818,44.327 69.158,45.319 67.896 C 45.510 67.654,45.667 67.369,45.667 67.264 C 45.667 66.918,47.335 65.316,47.966 65.055 C 48.305 64.915,48.704 64.693,48.851 64.563 C 48.998 64.432,49.635 64.216,50.267 64.081 C 50.900 63.947,51.642 63.767,51.917 63.683 C 52.676 63.449,54.464 63.477,55.583 63.740 " stroke="none" fill="#063d84" fill-rule="evenodd"></path><path id="path1" d="M169.333 26.850 C 168.646 26.918,166.821 27.093,165.278 27.240 C 163.735 27.387,162.223 27.611,161.919 27.738 C 161.614 27.866,160.927 28.060,160.391 28.171 C 159.385 28.379,157.870 28.918,156.417 29.584 C 155.958 29.794,155.396 30.021,155.167 30.088 C 154.938 30.155,154.563 30.337,154.333 30.493 C 154.104 30.648,153.654 30.878,153.333 31.004 C 153.012 31.131,152.286 31.556,151.718 31.950 C 151.150 32.344,150.634 32.667,150.570 32.667 C 149.509 32.667,143.611 38.408,141.753 41.250 C 141.243 42.030,139.545 45.441,139.323 46.130 C 139.213 46.471,139.023 46.938,138.899 47.167 C 138.379 48.130,137.943 49.593,137.136 53.083 C 136.622 55.303,136.549 63.761,137.030 65.333 C 137.185 65.837,137.395 66.737,137.497 67.333 C 137.687 68.437,138.566 71.146,138.931 71.750 C 139.041 71.933,139.185 72.271,139.249 72.500 C 139.415 73.089,141.277 76.800,141.757 77.500 C 143.526 80.077,146.550 83.287,148.544 84.706 C 149.094 85.097,149.681 85.545,149.848 85.701 C 150.016 85.858,150.437 86.140,150.785 86.328 C 151.132 86.516,151.529 86.743,151.667 86.831 C 151.804 86.920,152.179 87.108,152.500 87.249 C 152.821 87.390,153.271 87.608,153.500 87.734 C 154.201 88.117,155.775 88.833,155.917 88.833 C 155.990 88.833,156.433 89.015,156.900 89.236 C 162.203 91.748,174.595 92.650,180.990 90.989 C 181.672 90.812,182.384 90.664,182.573 90.661 C 182.762 90.658,183.329 90.503,183.833 90.317 C 184.338 90.131,185.125 89.876,185.583 89.751 C 186.421 89.522,188.331 88.793,188.875 88.494 C 189.035 88.405,189.298 88.271,189.458 88.195 C 189.986 87.944,190.744 87.562,191.083 87.376 C 191.267 87.276,191.907 86.968,192.505 86.692 C 193.840 86.079,195.797 84.547,198.713 81.833 C 199.551 81.054,200.882 79.447,201.833 78.068 C 203.766 75.266,205.036 72.981,205.253 71.917 C 205.310 71.642,205.493 71.079,205.662 70.667 C 207.481 66.218,208.348 58.312,207.418 54.667 C 207.290 54.163,207.138 53.337,207.081 52.833 C 206.971 51.851,206.395 49.759,205.751 48.000 C 205.532 47.404,205.308 46.692,205.253 46.417 C 205.135 45.838,204.196 43.923,203.494 42.833 C 203.229 42.421,202.856 41.800,202.666 41.453 C 202.477 41.107,202.216 40.694,202.087 40.537 C 201.958 40.379,201.350 39.615,200.735 38.840 C 198.786 36.383,196.218 34.023,194.017 32.667 C 193.348 32.254,192.564 31.764,192.275 31.577 C 191.986 31.391,191.487 31.135,191.167 31.008 C 190.846 30.882,190.471 30.692,190.333 30.586 C 189.949 30.291,187.996 29.395,187.250 29.171 C 186.883 29.061,186.208 28.832,185.750 28.663 C 183.467 27.818,182.005 27.500,179.250 27.252 C 177.692 27.111,176.235 26.955,176.014 26.905 C 175.357 26.755,170.685 26.717,169.333 26.850 M174.917 40.209 C 176.154 40.630,177.314 41.390,177.846 42.127 C 178.068 42.435,178.328 42.776,178.423 42.885 C 179.450 44.065,180.449 46.871,181.341 51.083 C 181.967 54.041,181.866 65.024,181.186 67.917 C 181.013 68.650,180.824 69.550,180.766 69.917 C 180.552 71.255,179.141 74.553,178.248 75.802 C 176.152 78.731,170.466 79.363,167.833 76.960 C 167.107 76.298,165.667 74.566,165.667 74.355 C 165.667 74.244,165.510 73.847,165.320 73.473 C 164.759 72.375,164.159 70.516,163.903 69.083 C 163.772 68.350,163.534 67.075,163.374 66.250 C 162.271 60.558,163.326 48.900,165.281 45.184 C 165.493 44.780,165.667 44.368,165.667 44.267 C 165.671 43.371,168.729 40.702,170.333 40.194 C 172.197 39.605,173.154 39.608,174.917 40.209 M332.232 87.302 L 331.816 87.520 331.866 92.849 C 331.909 97.368,331.955 98.203,332.167 98.337 C 332.566 98.589,379.214 98.552,379.467 98.300 C 379.775 97.991,379.751 87.611,379.441 87.353 C 379.084 87.057,332.795 87.007,332.232 87.302 " stroke="none" fill="#a50624" fill-rule="evenodd"></path></g></svg>